<svg xmlns="http://www.w3.org/2000/svg" width="66" height="77" viewBox="0 0 66 77"><g><g><g><path fill="#515050" d="M55.781 43.526V49h-1v-5.474a10.898 10.898 0 0 0 1 0zm0 5.474h4.438v1H54.78v-.313h1zM45.678 37.574C41.336 44.62 33.55 49.32 24.665 49.32 11.043 49.32 0 38.279 0 24.66 0 11.04 11.043 0 24.665 0 38.04 0 48.922 10.647 49.31 23.926a10.668 10.668 0 0 1 5.972-1.817C61.202 22.109 66 26.906 66 32.823c0 5.75-4.531 10.443-10.219 10.703V41.15a8.164 8.164 0 0 0-.327-16.32 8.164 8.164 0 0 0-.673 16.3v2.396a10.717 10.717 0 0 1-9.103-5.952zM2.722 24.66c0 12.116 9.824 21.939 21.943 21.939 8.858 0 16.483-5.252 19.948-12.807a10.758 10.758 0 0 1 .16-3.062l-17.736-3.86h-.418a2.7 2.7 0 0 1-1.784.681 2.721 2.721 0 0 1-1.236-5.143c-.306-.147-.475-.224-.103-.225l.13.211a1.91 1.91 0 0 1 .042-.02l-.112-.192c.105.002.211.014.317.029l.273-.473.162.093 7.63-17.87a21.902 21.902 0 0 0-7.273-1.24c-12.119 0-21.943 9.822-21.943 21.939zM34.686 5.144l-7.864 17.84c.137.148.262.309.364.485h.03v.052c.051.092.094.19.135.288h.546v.187l17.742 4.153c.25-.514.54-1.004.866-1.468.062-.666.103-1.339.103-2.021 0-8.506-4.844-15.875-11.922-19.516zM54.78 41.13v-6.886a1.186 1.186 0 0 0 1 .002v6.905a8.307 8.307 0 0 1-1-.02zm-.688-7.966a1.19 1.19 0 1 1 1.688 1.082v-.901h-1v.899a1.19 1.19 0 0 1-.688-1.08zM37.777 68.57a1.8 1.8 0 0 1 2.672 0c.738.793.738 2.077 0 2.869l-4.615 4.954a1.8 1.8 0 0 1-2.672 0l-4.615-4.954c-.738-.792-.738-2.076 0-2.869a1.8 1.8 0 0 1 2.672 0l3.28 3.52zM34.5 61a1.5 1.5 0 0 1 1.5 1.5v4a1.5 1.5 0 0 1-3 0v-4a1.5 1.5 0 0 1 1.5-1.5zm0-10a1.5 1.5 0 0 1 1.5 1.5v5a1.5 1.5 0 0 1-3 0v-5a1.5 1.5 0 0 1 1.5-1.5z"/></g><g><path fill="#fcff19" d="M55.781 43.526V49h-1v-5.474a10.898 10.898 0 0 0 1 0zm0 5.474h4.438v1H54.78v-.313h1zM45.678 37.574C41.336 44.62 33.55 49.32 24.665 49.32 11.043 49.32 0 38.279 0 24.66 0 11.04 11.043 0 24.665 0 38.04 0 48.922 10.647 49.31 23.926a10.668 10.668 0 0 1 5.972-1.817C61.202 22.109 66 26.906 66 32.823c0 5.75-4.531 10.443-10.219 10.703V41.15a8.164 8.164 0 0 0-.327-16.32 8.164 8.164 0 0 0-.673 16.3v2.396a10.717 10.717 0 0 1-9.103-5.952zM2.722 24.66c0 12.116 9.824 21.939 21.943 21.939 8.858 0 16.483-5.252 19.948-12.807a10.758 10.758 0 0 1 .16-3.062l-17.736-3.86h-.418a2.7 2.7 0 0 1-1.784.681 2.721 2.721 0 0 1-1.236-5.143c-.306-.147-.475-.224-.103-.225l.13.211a1.91 1.91 0 0 1 .042-.02l-.112-.192c.105.002.211.014.317.029l.273-.473.162.093 7.63-17.87a21.902 21.902 0 0 0-7.273-1.24c-12.119 0-21.943 9.822-21.943 21.939zM34.686 5.144l-7.864 17.84c.137.148.262.309.364.485h.03v.052c.051.092.094.19.135.288h.546v.187l17.742 4.153c.25-.514.54-1.004.866-1.468.062-.666.103-1.339.103-2.021 0-8.506-4.844-15.875-11.922-19.516zM54.78 41.13v-6.886a1.186 1.186 0 0 0 1 .002v6.905a8.307 8.307 0 0 1-1-.02zm-.688-7.966a1.19 1.19 0 1 1 1.688 1.082v-.901h-1v.899a1.19 1.19 0 0 1-.688-1.08zM37.777 68.57a1.8 1.8 0 0 1 2.672 0c.738.793.738 2.077 0 2.869l-4.615 4.954a1.8 1.8 0 0 1-2.672 0l-4.615-4.954c-.738-.792-.738-2.076 0-2.869a1.8 1.8 0 0 1 2.672 0l3.28 3.52zM34.5 61a1.5 1.5 0 0 1 1.5 1.5v4a1.5 1.5 0 0 1-3 0v-4a1.5 1.5 0 0 1 1.5-1.5zm0-10a1.5 1.5 0 0 1 1.5 1.5v5a1.5 1.5 0 0 1-3 0v-5a1.5 1.5 0 0 1 1.5-1.5z"/></g></g></g></svg>