<svg xmlns="http://www.w3.org/2000/svg" width="144" height="43" viewBox="0 0 144 43"><defs><clipPath id="yf4oa"><path fill="#fff" d="M10.25 0h123c5.523 0 10 4.477 10 10v23c0 5.523-4.477 10-10 10h-123c-5.523 0-10-4.477-10-10V10c0-5.523 4.477-10 10-10zm114.072 20.842a2.2 2.2 0 0 0 0-3.183 2.38 2.38 0 0 0-3.288 0l-4.036 3.906-4.036-3.906a2.38 2.38 0 0 0-3.289 0 2.2 2.2 0 0 0 0 3.183l5.68 5.498a2.38 2.38 0 0 0 3.289 0z"/></clipPath></defs><g><g><path fill="none" stroke="#8f8f8f" stroke-miterlimit="50" stroke-width="2" d="M10.25 0h123c5.523 0 10 4.477 10 10v23c0 5.523-4.477 10-10 10h-123c-5.523 0-10-4.477-10-10V10c0-5.523 4.477-10 10-10zm114.072 20.842a2.2 2.2 0 0 0 0-3.183 2.38 2.38 0 0 0-3.288 0l-4.036 3.906-4.036-3.906a2.38 2.38 0 0 0-3.289 0 2.2 2.2 0 0 0 0 3.183l5.68 5.498a2.38 2.38 0 0 0 3.289 0z" clip-path="url(&quot;#yf4oa&quot;)"/></g></g></svg>